<?xml version="1.0" encoding="UTF-8"?><svg id="b" xmlns="http://www.w3.org/2000/svg" viewBox="0 0 140.02 152.8"><defs><style>.d{fill:#476949;}.d,.e,.f,.g{stroke-width:0px;}.e{fill:#c2ca9a;}.f{fill:#004a22;}.g{fill:#d8e8c3;}</style></defs><g id="c"><path class="e" d="M133.01,48.06c0,18.98,0,37.97.02,56.95,0,2.91-1.49,4.79-3.85,6.21-11.06,6.69-22.1,13.4-33.15,20.09-6.85,4.15-13.79,8.15-20.53,12.48-1.25.81-2.44,1.33-3.61,1.59.26-4.56.28-9.12.06-13.68-.17-3.58-.62-7.13-1.96-10.52-1.71-4.34-4.55-5.41-8.59-3.16-2.67,1.49-4.17.86-4.9-2.15-.52-2.17-.52-4.35.4-6.43.96-2.15,2.47-2.7,4.59-1.73.77.36,1.48.84,2.24,1.22,2.72,1.35,4.94.61,6.34-2.16,1.22-2.38,1.45-4.99,1.65-7.6.49-6.51.01-12.99-.77-19.44l-.24-1.99c.08-.54.55-.93,1.44-1.44l.06-.03c5.75-3.3,11.55-6.46,17.66-8.76,1.15-.43,2.32-.8,3.49-1.09,2.07-.5,2.46.02,1.69,1.99-.89,2.27-1.7,4.54-1.17,6.79.58,2.47,2.17,3.85,4.82,4.05,5.44.41,12.86-3.82,15.36-8.66,1.35-2.59,1.14-4.76-.31-6.7-.37-.49-.77-.95-1.15-1.42-1.08-1.34-.85-2.76.48-4.27,1.97-2.23,4.39-3.84,6.88-5.34,4.16-2.53,8.5-4.57,12.88-6.45.11.52.17,1.06.17,1.65Z"/><path class="d" d="M129.5,41.92c.79.47,1.42,1.01,1.94,1.61-4.63,1.99-9.19,4.17-13.56,6.92-2.92,1.83-5.73,3.8-7.84,6.63-2.1,2.8-2.23,5.55-.34,7.78,2.61,3.11,2.02,5.5-2.03,8.17-2.3,1.52-4.69,2.7-7.31,2.81-2.27.09-3.32-1.05-3.12-3.31.12-1.35.75-2.64,1.21-3.95,1.49-4.23-.16-6.28-4.54-5.6-3.69.57-7.19,2.24-10.68,3.87-4.2,1.95-8.28,4.22-12.3,6.61-.03.02-.04.03-.07.04h-.01s0,.01,0,.01h-.01s-.02.02-.03.02h0s-.01,0-.01.02c-.11.06-.22.12-.36.19l-.18.08c-.23.1-2.13.36-3.37-.03-.09-.05-.23-.11-.35-.16-.03-.02-.07-.03-.1-.05,0,0-.14-.07-.29-.13-7.9-3.71-15.88-7.32-22.56-12.23-.49-.36-.98-.72-1.41-1.12-1.94-1.82-1.65-2.71,1.08-3.4,6.58-1.67,8.11-5.38,3.94-9.93-2.53-2.75-5.79-4.93-10.36-5.85-.35-.07-.7-.13-1.04-.17-3.82-.55-6.79.38-8.57,2.74-.67.88-1.13,1.84-1.44,2.84-.76,2.4-2.34,2.99-5.97,2.17-3.87-.87-7.29-2.46-10.68-4.08-.31-.15-.62-.31-.93-.46.66-.86,1.53-1.59,2.58-2.22,11.06-6.69,22.1-13.4,33.15-20.09,6.85-4.15,13.8-8.16,20.53-12.48,1.42-.92,2.77-1.47,4.1-1.69.45-.07.89-.1,1.33-.09,1.77.01,3.54.63,5.46,1.8.21.13.44.26.65.4.02.01.04.02.05.02,5.98,3.64,11.98,7.25,17.99,10.84h.01c.57.35,1.13.69,1.7,1.03h0c11.25,6.83,22.49,13.65,33.76,20.44Z"/><path class="g" d="M68.6,135.02c.12,3.46.04,6.91-.14,10.37-1.24-.27-2.51-.81-3.84-1.62-.24-.14-.48-.28-.71-.43-2.75-1.65-5.3-3.17-7.76-4.65-.94-.56-1.87-1.12-2.79-1.68-.6-.36-1.2-.72-1.79-1.08-1.95-1.18-3.91-2.37-5.86-3.55-11.75-7.12-23.49-14.25-35.26-21.34-.3-.18-.57-.36-.83-.56-.63-.47-1.13-1-1.53-1.59-.05-.06-.1-.12-.14-.19-.26-.4-.46-.83-.62-1.29-.03-.08-.05-.16-.07-.23-.21-.7-.32-1.45-.32-2.28.01-18.99.01-37.97,0-56.96-.01-.36.02-.71.06-1.04.01-.04.02-.07.02-.11,3.01,1.44,6.12,2.75,9.45,3.83,1.65.53,3.32.89,5.05,1.06,4.53.45,7.32-.88,8.22-3.88.94-3.15,2.91-4.59,5.66-4.28,1.69.19,3.68,1.04,5.9,2.55,1.61,1.1,2.98,2.32,3.57,3.83.78,1.98.06,3.07-2.46,3.8-1.05.3-2.17.52-3.17.89-2.64.99-3.34,2.74-2.02,4.87,1.57,2.54,4.39,4.45,7.26,6.28,6.41,4.08,13.53,7.44,20.83,10.58.93.4,1.54.75,1.81,1.17l.28.76.25,2.11c.58,6.96,1.26,13.91.43,20.9-.06.54-.14,1.09-.25,1.62-.62,3.22-1.38,3.66-4.18,2.04-3.79-2.18-8.75-1.58-10.44,4.73-.88,3.29-.81,6.51.94,9.52,1.88,3.26,4.99,4.06,8.25,2.24,2.97-1.65,3.93-1.25,4.89,2.06,1.1,3.77,1.19,7.67,1.32,11.55Z"/><path class="f" d="M131.19,34.26c-17.69-10.38-35.28-20.95-52.83-31.58-5.75-3.48-11.09-3.66-16.93-.05C43.46,13.73,25.38,24.65,7.28,35.53,2.4,38.46.01,42.6.01,48.19,0,66.87.03,85.55,0,104.23c-.01,6,2.63,10.34,7.72,13.4,18.12,10.86,36.22,21.74,54.3,32.68,5.37,3.25,10.6,3.34,15.98.08,18.27-11.06,36.57-22.05,54.82-33.14,4.74-2.87,7.15-7.18,7.13-12.81-.05-9.38-.02-18.76-.02-28.13,0-8.85-.23-17.71.08-26.55.25-7.17-2.72-11.92-8.82-15.5ZM10.77,41.74c11.06-6.69,22.1-13.4,33.15-20.09,6.85-4.15,13.8-8.16,20.53-12.48,1.42-.92,2.77-1.47,4.1-1.69.45-.07.89-.1,1.33-.09,1.77.01,3.54.63,5.46,1.8.21.13.44.26.65.4.02.01.04.02.05.02,5.98,3.64,11.98,7.25,17.99,10.84h.01c.57.35,1.13.69,1.7,1.03h0c11.25,6.83,22.49,13.65,33.76,20.44.79.47,1.42,1.01,1.94,1.61-4.63,1.99-9.19,4.17-13.56,6.92-2.92,1.83-5.73,3.8-7.84,6.63-2.1,2.8-2.23,5.55-.34,7.78,2.61,3.11,2.02,5.5-2.03,8.17-2.3,1.52-4.69,2.7-7.31,2.81-2.27.09-3.32-1.05-3.12-3.31.12-1.35.75-2.64,1.21-3.95,1.49-4.23-.16-6.28-4.54-5.6-3.69.57-7.19,2.24-10.68,3.87-4.2,1.95-8.28,4.22-12.3,6.61-.03.02-.04.03-.07.04h-.01s-.01.01-.01.01h-.01s-.02.02-.03.02h0s-.01.01-.01.02c-.11.06-.22.12-.36.19l-.18.08c-.23.1-2.13.36-3.37-.03-.09-.05-.23-.11-.35-.16-.03-.02-.07-.03-.1-.05,0,0-.14-.07-.29-.13-7.9-3.71-15.88-7.32-22.56-12.23-.49-.36-.98-.72-1.41-1.12-1.94-1.82-1.65-2.71,1.08-3.4,6.58-1.67,8.11-5.38,3.94-9.93-2.53-2.75-5.79-4.93-10.36-5.85-.35-.07-.7-.13-1.04-.17-3.82-.55-6.79.38-8.57,2.74-.67.88-1.13,1.84-1.44,2.84-.76,2.4-2.34,2.99-5.97,2.17-3.87-.87-7.29-2.46-10.68-4.08-.31-.15-.62-.31-.93-.46.66-.86,1.53-1.59,2.58-2.22ZM68.46,145.39c-1.24-.27-2.51-.81-3.84-1.62-.24-.14-.48-.28-.71-.43-2.75-1.65-5.3-3.17-7.76-4.65-.94-.56-1.87-1.12-2.79-1.68-.6-.36-1.2-.72-1.79-1.08-1.95-1.18-3.91-2.37-5.86-3.55-11.75-7.12-23.49-14.25-35.26-21.34-.3-.18-.57-.36-.83-.56-.63-.47-1.13-1-1.53-1.59-.05-.06-.1-.12-.14-.19-.26-.4-.46-.83-.62-1.29-.03-.08-.05-.16-.07-.23-.21-.7-.32-1.45-.32-2.28.01-18.99.01-37.97-.01-56.96,0-.36.02-.71.06-1.04.01-.04.02-.07.02-.11,3.01,1.44,6.12,2.75,9.45,3.83,1.65.53,3.32.89,5.05,1.06,4.53.45,7.32-.88,8.22-3.88.94-3.15,2.91-4.59,5.66-4.28,1.69.19,3.68,1.04,5.9,2.55,1.61,1.1,2.98,2.32,3.57,3.83.78,1.98.06,3.07-2.46,3.8-1.05.3-2.17.52-3.17.89-2.64.99-3.34,2.74-2.02,4.87,1.57,2.54,4.39,4.45,7.26,6.28,6.41,4.08,13.53,7.44,20.83,10.58.93.4,1.54.75,1.81,1.17l.28.76.25,2.11c.58,6.96,1.26,13.91.43,20.9-.06.54-.14,1.09-.25,1.62-.62,3.22-1.38,3.66-4.18,2.04-3.79-2.18-8.75-1.58-10.44,4.73-.88,3.29-.81,6.51.94,9.52,1.88,3.26,4.99,4.06,8.25,2.24,2.97-1.65,3.93-1.25,4.89,2.06,1.1,3.77,1.19,7.67,1.32,11.55.12,3.46.04,6.91-.14,10.37ZM129.18,111.22c-11.06,6.69-22.1,13.4-33.15,20.09-6.85,4.15-13.79,8.15-20.53,12.48-1.25.81-2.44,1.33-3.61,1.59.26-4.56.28-9.12.06-13.68-.17-3.58-.62-7.13-1.96-10.52-1.71-4.34-4.55-5.41-8.59-3.16-2.67,1.49-4.17.86-4.9-2.15-.52-2.17-.52-4.35.4-6.43.96-2.15,2.47-2.7,4.59-1.73.77.36,1.48.84,2.24,1.22,2.72,1.35,4.94.61,6.34-2.16,1.22-2.38,1.45-4.99,1.65-7.6.49-6.51.01-12.99-.77-19.44l-.24-1.99c.08-.54.55-.93,1.44-1.44.02-.01.04-.02.06-.03,5.75-3.3,11.55-6.46,17.66-8.76,1.15-.43,2.32-.8,3.49-1.09,2.07-.5,2.46.02,1.69,1.99-.89,2.27-1.7,4.54-1.17,6.79.58,2.47,2.17,3.85,4.82,4.05,5.44.41,12.86-3.82,15.36-8.66,1.35-2.59,1.14-4.76-.31-6.7-.37-.49-.77-.95-1.15-1.42-1.08-1.34-.85-2.76.48-4.27,1.97-2.23,4.39-3.84,6.88-5.34,4.16-2.53,8.5-4.57,12.88-6.45.11.52.17,1.06.17,1.65-.01,18.98-.01,37.97.02,56.95,0,2.91-1.49,4.79-3.85,6.21Z"/></g></svg>